<?xml version="1.0" standalone="no"?>
<!DOCTYPE svg PUBLIC "-//W3C//DTD SVG 20010904//EN"
 "http://www.w3.org/TR/2001/REC-SVG-20010904/DTD/svg10.dtd">
<svg version="1.0" xmlns="http://www.w3.org/2000/svg"
 width="700.000000pt" height="700.000000pt" viewBox="0 0 700.000000 700.000000"
 preserveAspectRatio="xMidYMid meet">
<metadata>
Created by potrace 1.11, written by Peter Selinger 2001-2013
</metadata>
<g transform="translate(0.000000,700.000000) scale(0.100000,-0.100000)"
fill="#000000" stroke="none">
<path d="M3337 6614 c-1 -1 -43 -5 -93 -8 -51 -4 -100 -8 -110 -10 -11 -2 -44
-7 -74 -11 -30 -4 -64 -9 -75 -11 -11 -2 -47 -9 -80 -15 -33 -6 -96 -20 -140
-31 -44 -11 -84 -21 -90 -22 -64 -15 -229 -69 -290 -96 -22 -10 -51 -21 -65
-25 -41 -12 -280 -128 -360 -175 -719 -416 -1236 -1076 -1458 -1860 -32 -111
-41 -149 -48 -190 -3 -14 -11 -59 -19 -100 -9 -41 -18 -100 -21 -130 -3 -30
-7 -57 -9 -60 -8 -13 -19 -229 -19 -370 1 -154 9 -317 18 -362 3 -13 8 -47 11
-77 9 -87 53 -292 90 -420 140 -489 401 -941 750 -1301 202 -208 475 -423 690
-543 316 -176 682 -309 995 -363 14 -2 36 -7 50 -9 175 -35 546 -49 770 -31
280 23 626 103 885 206 81 33 336 154 390 187 278 167 437 286 623 465 392
379 661 818 826 1348 41 134 87 341 102 465 3 28 8 61 10 75 23 142 23 590 0
716 -2 11 -7 46 -10 79 -34 288 -151 664 -297 955 -156 312 -332 554 -588 811
-344 345 -720 582 -1171 740 -117 41 -270 84 -365 104 -44 9 -88 18 -97 20
-36 7 -236 35 -298 41 -61 6 -427 13 -433 8z m-178 -884 c165 -40 306 -116
421 -229 134 -132 209 -263 261 -456 15 -54 19 -290 7 -362 -12 -70 -57 -193
-99 -271 -108 -201 -289 -352 -514 -427 -104 -35 -140 -40 -295 -40 -136 0
-173 6 -295 48 -353 122 -597 469 -597 847 0 182 41 333 134 487 42 71 152
189 230 248 119 90 292 159 428 171 36 4 66 7 68 9 9 8 181 -9 251 -25z
m-1073 -1502 c152 -225 417 -395 685 -441 103 -18 323 -14 397 6 29 9 55 15
57 16 55 4 243 92 337 157 68 48 203 184 248 252 l35 52 65 -2 c133 -3 258
-57 354 -153 55 -55 106 -129 95 -139 -2 -2 -34 -6 -71 -10 -189 -18 -410 -98
-586 -212 -310 -202 -529 -517 -606 -874 -54 -250 -34 -555 51 -776 8 -22
-1154 -20 -1247 2 -182 42 -328 174 -391 355 -23 64 -23 66 -23 714 0 595 1
655 18 709 26 86 73 163 141 231 98 97 226 153 351 154 61 1 61 1 90 -41z
m2524 -539 c246 -37 456 -141 629 -311 112 -111 182 -214 244 -358 93 -219
113 -437 62 -689 -18 -94 -91 -262 -154 -356 -64 -95 -73 -105 -160 -192 -338
-335 -874 -410 -1301 -182 -147 79 -308 224 -395 355 -33 49 -116 200 -114
207 1 3 -12 39 -22 62 -32 75 -53 209 -53 355 -1 141 7 199 40 315 107 368
404 661 777 765 42 11 98 24 125 27 26 3 49 7 51 9 7 6 218 1 271 -7z"/>
<path d="M4270 3096 c0 -114 3 -155 13 -158 6 -2 91 -4 187 -4 l175 1 0 155 0
155 -187 3 -188 2 0 -154z"/>
<path d="M4272 2353 l3 -437 178 0 c108 -1 182 3 186 9 4 6 7 201 7 435 l-1
425 -188 2 -187 3 2 -437z"/>
</g>
</svg>
